<?xml version="1.0"?><svg width="195" height="245" xmlns="http://www.w3.org/2000/svg" xmlns:xlink="http://www.w3.org/1999/xlink">
 <title>Halloween Tombstone no Face</title>
 <defs>
  <linearGradient id="linearGradient4219">
   <stop stop-color="#cccccc" id="stop4221" offset="0"/>
   <stop stop-color="#9a9a9a" id="stop4223" offset="1"/>
  </linearGradient>
  <linearGradient id="linearGradient4187">
   <stop stop-color="#000000" id="stop4189" offset="0"/>
   <stop stop-color="#000000" offset="0.580219" id="stop4211"/>
   <stop stop-color="#656565" id="stop4191" offset="1"/>
  </linearGradient>
  <radialGradient gradientUnits="userSpaceOnUse" gradientTransform="matrix(1.70505, -0.0174628, 0.0186739, 1.82329, -104.046, 30.0682)" r="87.932358" fy="53.280296" fx="145.44064" cy="53.280296" cx="145.44064" id="radialGradient4193" xlink:href="#linearGradient4187"/>
  <radialGradient gradientUnits="userSpaceOnUse" gradientTransform="matrix(0.999898, -0.0142662, 0.0345451, 2.42122, 293.329, -165.869)" r="86.84317" fy="114.56503" fx="125.08356" cy="114.56503" cx="125.08356" id="radialGradient4225" xlink:href="#linearGradient4219"/>
 </defs>
 <metadata id="metadata7">image/svg+xmlHalloween Tombstone Angry Face2010-09-26cgbugPublic Domainopenclipart.orghttp://www.cgbug.net/http://www.cgbug.net/http://www.cgbug.net/en-UShalloween2010HalloweentombstonetombstoneangryfacegravegraveyardspookycreepyscarydeathdeadcartoonHalloween Tombstone Angry Face</metadata>
 <g>
  <title>Layer 1</title>
  <path fill="url(#radialGradient4193)" id="path3182-0" d="m20.434349,239.876999c-3.795769,-30.827713 -7.422468,-64.538818 -11.84314,-96.616333c5.1726,-2.15683 3.61013,-2.096817 6.32769,-3.194855c-2.59643,-1.188187 -3.33449,-0.932983 -7.18524,-2.277496c-2.493179,-35.549011 -2.944599,-66.457657 -4.96081,-101.519863c0,0 33.11272,-35.951412 33.11272,-35.951412c0,0 90.176716,1.79071 90.176716,1.79071c0,0 26.500931,8.71512 26.500931,8.71512c0,0 20.876724,79.713339 20.876724,79.713339l-132.849541,153.463791l-20.156052,-4.123001z"/>
  <path fill="#d8d8d8" d="m40.473801,168.415985c-4.861,1.696014 -10.9977,0.202011 -18.3018,-4.210999l10.608498,8.746002l7.693302,-4.535004l0,0zm-12.314701,-97.735985l-10.154701,-4.591698l3.355503,11.567596l6.799198,-6.975899zm5.209801,-10.7728c-5.239201,0.281601 -10.4785,-3.999001 -15.717701,-7.1525l10.949402,12.4506l4.768299,-5.2981l0,0zm-18.6411,-5.1866l13.4639,8.010998l7.044201,-4.112999c-6.836002,1.525501 -13.672001,-2.094997 -20.508101,-3.897999zm-10.3246,99.331387l20.039301,4.848999l11.4804,-5.826996l-12.329601,-0.29599l-12.9722,-1.988007l-6.217899,3.261993z" id="path3413"/>
  <path fill="url(#radialGradient4225)" id="path3182-8" d="m40.590401,244l-8.88612,-71.040161l7.90667,-4.538574c-6.680519,-3.663773 -9.8451,-5.562225 -9.90974,-12.846695l-1.106022,-7.470383l11.472042,-5.802307c0,0 -12.22681,-0.269852 -12.22681,-0.269852l-6.031769,-48.289116c-0.69471,-6.262283 -1.135349,-9.340004 -1.29475,-16.093941c1.760681,-2.255524 4.29438,-4.541199 6.59893,-6.922401c0.174721,-1.697212 0.330231,-3.92588 0.49741,-5.587082c-0.74297,-3.037239 2.952969,-4.893478 4.764137,-5.170177c1.205254,-3.18177 1.188671,-2.606621 -0.097958,-8.086151c2.747208,-1.66935 4.487049,-2.699409 7.03841,-3.887539c-2.630409,-3.341122 -8.110172,-4.078411 -9.112801,-10.883011c19.079853,-16.761311 28.998943,-27.69283 28.998943,-27.69283c0,0 92.902405,0.84024 92.902405,0.84024c0,0 39.088531,47.784959 39.088531,47.784959l-20.04248,185.496815l-130.559029,0.458206z"/>
  <path opacity="0.5" fill="#1e1e1e" d="m453.472412,78.597099c-12.580994,-17.491398 -27.458313,-30.206699 -42.686401,-24.424c15.47879,6.0965 19.31958,46.076199 42.686401,24.424zm18.93399,-0.0644c8.001007,-13.1716 24.082977,-21.758801 39.91098,-19.426701c-18.604004,5.880901 -17.633972,41.077 -39.91098,19.426701zm-15.5,33.538498c8.165009,0.656303 15.072998,0.850906 20.735016,1.082405c0.418976,-0.013405 5.509979,14.428398 7.34198,17.2714c-0.054016,-4.219002 -1.880005,-16.623901 -0.341003,-16.205902c6.351013,1.725899 14.057007,6.047897 10.32901,16.382889c-6.735016,18.669998 -18.011017,-10.90699 -38.105011,-12.321991c-20.700012,-1.457001 -43.417389,26.470001 -44.777802,7.805c-1.015106,-13.927597 12.277802,-16.297195 20.657623,-16.333595c1.719086,-0.007401 -5.059509,14.318596 -3.919922,14.427597c1.019501,0.098 10.032104,-14.024704 10.336121,-13.9543c5.075989,0.604897 10.963989,1.301498 17.743988,1.846497l0,0z" id="path5294-6-4"/>
  <path opacity="0.5" fill="#ffffff" d="m385.472412,87.931c-12.580994,-17.491394 -27.458313,-30.206799 -42.686401,-24.424c15.47879,6.0965 19.31958,46.076199 42.686401,24.424zm18.93399,-0.0644c8.001007,-13.1717 24.082977,-21.758797 39.91098,-19.426704c-18.604004,5.880905 -17.633972,41.076904 -39.91098,19.426704zm-15.5,33.538399c8.165009,0.655998 15.072998,0.850998 20.735016,1.083c0.418976,-0.014 5.509979,14.42701 7.34198,17.271004c-0.054016,-4.218994 -1.880005,-16.624001 -0.341003,-16.206001c6.351013,1.724998 14.057007,6.047997 10.32901,16.381996c-6.735016,18.67099 -18.011017,-10.906006 -38.105011,-12.320999c-20.700012,-1.457001 -43.417389,26.470001 -44.777802,7.805008c-1.015106,-13.928009 12.277802,-16.297409 20.657623,-16.333809c1.719086,-0.007401 -5.059509,14.318794 -3.919922,14.427803c1.019501,0.097992 10.032104,-14.024803 10.336121,-13.954399c5.075989,0.604897 10.963989,1.301399 17.743988,1.846397l0,0z" id="path5294-6"/>
 </g>
</svg>